<?xml version="1.0" standalone="no"?>
<!DOCTYPE svg PUBLIC "-//W3C//DTD SVG 20010904//EN"
 "http://www.w3.org/TR/2001/REC-SVG-20010904/DTD/svg10.dtd">
<svg version="1.0" xmlns="http://www.w3.org/2000/svg"
   viewBox="0 0 740.000000 201.000000"
 preserveAspectRatio="xMidYMid meet">
<metadata>
Created by potrace 1.13, written by Peter Selinger 2001-2015
</metadata>
<g transform="translate(0.000000,201.000000) scale(0.100000,-0.100000)"
fill="#54402b" stroke="none">
<path d="M809 1996 c-197 -42 -371 -167 -415 -299 -23 -71 -16 -158 21 -233
23 -47 68 -98 220 -249 219 -217 240 -249 240 -355 -1 -102 -52 -177 -155
-231 -39 -21 -59 -24 -150 -24 -85 0 -114 4 -151 21 -94 43 -150 114 -164 207
-9 56 -15 57 -95 17 -120 -61 -170 -133 -136 -198 41 -80 147 -123 348 -142
176 -17 354 12 493 79 l76 37 -7 -43 c-10 -68 13 -53 53 35 20 42 39 79 42 82
3 3 18 19 33 37 l26 32 21 -57 c49 -135 170 -311 295 -430 247 -234 500 -341
577 -244 18 23 20 36 16 95 -3 54 -13 86 -45 150 -76 154 -243 350 -397 467
-38 29 -61 50 -50 46 110 -41 373 -53 565 -27 218 30 399 116 517 245 71 77
97 135 101 224 4 62 1 80 -22 126 -49 100 -134 136 -347 143 -398 15 -800 -97
-1058 -293 l-71 -54 35 63 c19 35 35 77 35 94 0 23 14 44 60 91 67 69 107 94
138 85 27 -7 29 13 3 22 -40 12 -133 -49 -181 -119 -19 -27 -31 -34 -52 -33
-26 2 -28 5 -28 47 -1 64 -30 140 -62 164 -15 11 -31 16 -35 12 -5 -4 4 -16
19 -27 27 -20 50 -76 63 -153 5 -30 2 -43 -13 -60 -11 -11 -30 -63 -42 -114
-12 -51 -26 -90 -30 -85 -5 4 -30 34 -56 65 -27 31 -103 105 -169 163 -181
161 -234 234 -235 320 0 68 18 110 64 153 153 141 456 53 456 -133 0 -23 6
-38 15 -41 18 -7 147 67 188 107 33 34 36 85 7 122 -23 29 -88 63 -163 84 -74
21 -315 26 -398 9z m1256 -641 c143 -30 225 -95 210 -167 -17 -74 -153 -171
-320 -227 -285 -94 -636 -75 -772 44 l-38 33 19 37 c51 95 305 234 511 280 82
18 303 18 390 0z m-780 -484 c87 -40 148 -84 225 -161 155 -157 215 -323 126
-346 -60 -15 -212 62 -328 165 -61 54 -134 151 -168 224 -28 57 -28 58 -12
108 l16 51 39 -6 c21 -4 67 -19 102 -35z"/>
</g>
   <text style="text-shadow: 0 1px 0 #111;" y="70" font-size="48" x="300" fill="#fbf5db" font-family="Segoe Script" class="noselect">Kadeřnický salón</text>
   <text style="text-shadow: 0 1px 0 #111;" y="160" font-size="96" x="295" fill="#fbf5db" font-family="Segoe Script" class="noselect">Butterfly</text>
</svg>