<?xml version="1.0" standalone="no"?>
<!DOCTYPE svg PUBLIC "-//W3C//DTD SVG 20010904//EN"
 "http://www.w3.org/TR/2001/REC-SVG-20010904/DTD/svg10.dtd">
<svg version="1.0" xmlns="http://www.w3.org/2000/svg"
 width="24pt" height="38.4pt" viewBox="0 0 320.000000 512.000000"
 preserveAspectRatio="xMidYMid meet">
<metadata>
Created by potrace 1.13, written by Peter Selinger 2001-2015
</metadata>
<g transform="translate(0.000000,512.000000) scale(0.100000,-0.100000)"
fill="#8d7551" stroke="none">
<path d="M1455 5114 c-102 -10 -239 -39 -340 -71 -561 -178 -971 -641 -1087
-1227 -31 -159 -31 -433 0 -592 39 -195 105 -368 203 -530 66 -110 139 -201
278 -349 429 -456 779 -1024 951 -1545 72 -217 128 -493 131 -637 1 -49 2 -53
9 -28 5 17 13 78 19 136 28 288 126 605 291 946 107 221 169 328 311 538 168
248 260 362 553 683 209 229 335 478 398 787 28 135 30 436 5 570 -73 378
-266 712 -545 945 -216 181 -454 295 -732 351 -92 18 -356 32 -445 23z m272
-970 c499 -103 684 -716 324 -1074 -88 -87 -180 -140 -297 -170 -397 -102
-794 208 -794 620 0 187 90 376 235 493 152 123 344 170 532 131z"/>
</g>
</svg>
